# xmcd
#
# Track frame offsets: 
#        150
#        10955
#        20345
#        31660
#        41437
#        52787
#        63652
#        75835
#        87050
#        97797
#        109012
#
# Disc length: 1604 seconds
#
# Revision: 0
# Processed by: cddbd v1.5.2PL0 Copyright (c) Steve Scherf et al.
# Submitted via: ExactAudioCopy v0.95b4
#
DISCID=6806420b
DTITLE=The Olympics - The Best of the Olympics
DYEAR=1987
DGENRE=R&B
TTITLE0=Western Movies
TTITLE1=Hully Gully
TTITLE2=Big Boy Pete
TTITLE3=The Duck
TTITLE4=Dance By The Light Of The Moon
TTITLE5=The Bounce
TTITLE6=Shimmy Like Kate
TTITLE7=Mine Exclusively
TTITLE8=Baby, Do The Philly Dog
TTITLE9=Same Old Thing
TTITLE10=I'll Do A Little Bit More
EXTD=
EXTT0=
EXTT1=
EXTT2=
EXTT3=
EXTT4=
EXTT5=
EXTT6=
EXTT7=
EXTT8=
EXTT9=
EXTT10=
PLAYORDER=
